<svg width="15" height="16" viewBox="0 0 15 16" fill="none" xmlns="http://www.w3.org/2000/svg">
<path d="M14.858 14.6541L10.9851 10.8433C11.9993 9.74145 12.6225 8.28423 12.6225 6.68073C12.622 3.25053 9.79656 0.470215 6.31098 0.470215C2.8254 0.470215 0 3.25053 0 6.68073C0 10.1109 2.8254 12.8912 6.31098 12.8912C7.81699 12.8912 9.19827 12.3703 10.2833 11.5043L14.1711 15.3302C14.3605 15.5169 14.6681 15.5169 14.8575 15.3302C15.0474 15.1436 15.0474 14.8408 14.858 14.6541ZM6.31098 11.9357C3.3618 11.9357 0.971033 9.58298 0.971033 6.68073C0.971033 3.77847 3.3618 1.42574 6.31098 1.42574C9.26019 1.42574 11.6509 3.77847 11.6509 6.68073C11.6509 9.58298 9.26019 11.9357 6.31098 11.9357Z" fill="white"/>
</svg>
